<?xml version="1.0" encoding="iso-8859-1"?>
<!-- Generator: Adobe Illustrator 16.0.0, SVG Export Plug-In . SVG Version: 6.00 Build 0)  -->
<!DOCTYPE svg PUBLIC "-//W3C//DTD SVG 1.1//EN" "http://www.w3.org/Graphics/SVG/1.1/DTD/svg11.dtd">
<svg version="1.1" id="Capa_1" xmlns="http://www.w3.org/2000/svg" xmlns:xlink="http://www.w3.org/1999/xlink" x="0px" y="0px"
	 width="541.197px" height="541.197px" viewBox="0 0 541.197 541.197" style="enable-background:new 0 0 541.197 541.197;"
	 xml:space="preserve">
<g>
	<path d="M320.912,388.004c0,2.782-2.251,5.034-5.028,5.034H91.133c-2.774,0-5.025-2.252-5.025-5.034
		c0-2.779,2.251-5.034,5.025-5.034h224.743C318.656,382.97,320.912,385.225,320.912,388.004z M465.898,414.423
		c-1.116,0.744-2.392,1.171-3.701,1.171c-0.613,0-1.234-0.076-1.85-0.252l-57.902-16.547c-4.949,22.261-24.822,38.963-48.545,38.963
		H49.762C22.323,437.758,0,415.441,0,388.004c0-20.704,12.725-38.489,30.75-45.964v-84.236c0-19.021,15.425-34.45,34.448-34.45
		h32.636V111.822c0-4.629,3.754-8.383,8.389-8.383c1.597,0,152.146,1.502,166.596,124.663c5.114-2.999,11.048-4.752,17.394-4.752
		h48.231c19.019,0,34.439,15.434,34.439,34.449v84.242c12.215,5.066,21.97,14.861,27.012,27.086l57.65-54.938
		c1.95-1.862,4.805-2.366,7.274-1.315c2.466,1.062,4.065,3.481,4.065,6.173v5.034l72.312,103.093L465.898,414.423z M356.262,351.78
		v19.863l31.544,9.018l1.341-1.291C385.449,364.234,372.272,352.822,356.262,351.78z M114.616,223.417
		c18.473,0.622,33.267,15.763,33.267,34.387v6.646h62.23l-9.98-58.236c-5.306-0.435-9.481-4.834-9.481-10.251
		c0-5.716,4.625-10.345,10.34-10.345c5.72,0,10.347,4.629,10.347,10.345c0,3.619-1.861,6.796-4.667,8.635l10.254,59.853h5.362
		l1.503-45.688c-3.546-1.642-6.02-5.212-6.02-9.379c0-5.715,4.629-10.345,10.346-10.345c5.709,0,10.345,4.629,10.345,10.345
		c0,4.893-3.415,8.974-7.981,10.047l-1.478,45.021h26.777v-6.646c0-3.371,0.504-6.61,1.4-9.688v-0.435
		c0-109.91-110.542-125.057-142.553-127.134v102.871H114.616z M389.529,395.107l-41.82-11.95c-2.886-0.821-4.866-3.459-4.866-6.446
		V351.66H49.762c-20.035,0-36.342,16.306-36.342,36.345s16.307,36.334,36.342,36.334h304.134
		C371.499,424.338,386.215,411.752,389.529,395.107z M455.482,334.697l-52.02,49.576c0.02,0.295,0.027,0.58,0.042,0.875
		l51.978,14.846V334.697z"/>
</g>
<g>
</g>
<g>
</g>
<g>
</g>
<g>
</g>
<g>
</g>
<g>
</g>
<g>
</g>
<g>
</g>
<g>
</g>
<g>
</g>
<g>
</g>
<g>
</g>
<g>
</g>
<g>
</g>
<g>
</g>
</svg>
